<?xml version="1.0" encoding="UTF-8" standalone="no"?>
<svg
   xmlns:dc="http://purl.org/dc/elements/1.1/"
   xmlns:cc="http://creativecommons.org/ns#"
   xmlns:rdf="http://www.w3.org/1999/02/22-rdf-syntax-ns#"
   xmlns:svg="http://www.w3.org/2000/svg"
   xmlns="http://www.w3.org/2000/svg"
   xmlns:sodipodi="http://sodipodi.sourceforge.net/DTD/sodipodi-0.dtd"
   xmlns:inkscape="http://www.inkscape.org/namespaces/inkscape"
   width="210mm"
   height="297mm"
   viewBox="0 0 210 297"
   version="1.1"
   id="svg8"
   inkscape:version="1.0.2 (e86c870879, 2021-01-15)"
   sodipodi:docname="area-circulo.svg">
  <defs
     id="defs2" />
  <sodipodi:namedview
     id="base"
     pagecolor="#ffffff"
     bordercolor="#666666"
     borderopacity="1.0"
     inkscape:pageopacity="0.0"
     inkscape:pageshadow="2"
     inkscape:zoom="2.6687159"
     inkscape:cx="350.37875"
     inkscape:cy="671.73975"
     inkscape:document-units="mm"
     inkscape:current-layer="layer1"
     inkscape:document-rotation="0"
     showgrid="false"
     inkscape:window-width="1920"
     inkscape:window-height="1016"
     inkscape:window-x="0"
     inkscape:window-y="0"
     inkscape:window-maximized="1" />
  <metadata
     id="metadata5">
    <rdf:RDF>
      <cc:Work
         rdf:about="">
        <dc:format>image/svg+xml</dc:format>
        <dc:type
           rdf:resource="http://purl.org/dc/dcmitype/StillImage" />
        <dc:title />
      </cc:Work>
    </rdf:RDF>
  </metadata>
  <g
     inkscape:label="Layer 1"
     inkscape:groupmode="layer"
     id="layer1">
    <path
       id="rect10"
       style="fill:#ff0000;stroke:#000000;stroke-width:0.239175;stroke-opacity:1"
       d="M 36.1514,6.9757786 A 19.999999,19.999999 0 0 1 16.151588,26.975589 V 46.975934 H 56.151731 V 26.975589 a 20,20 0 0 1 -0.19327,-10e-4 19.999999,19.999999 0 0 1 -5.18e-4,0 20,20 0 0 1 -0.966349,-0.0326 20,20 0 0 1 -0.386021,-0.0264 20,20 0 0 1 -0.38499,-0.0336 19.999999,19.999999 0 0 1 -5.19e-4,0 20,20 0 0 1 -0.576192,-0.0641 19.999999,19.999999 0 0 1 -5.16e-4,0 20,20 0 0 1 -0.382923,-0.0522 19.999999,19.999999 0 0 1 -5.16e-4,0 20,20 0 0 1 -0.190686,-0.0289 19.999999,19.999999 0 0 1 -5.18e-4,0 20,20 0 0 1 -0.381371,-0.0636 20,20 0 0 1 -0.380338,-0.0708 20,20 0 0 1 -0.378788,-0.078 19.999999,19.999999 0 0 1 -5.19e-4,0 20,20 0 0 1 -0.376721,-0.0853 19.999999,19.999999 0 0 1 -5.16e-4,0 20,20 0 0 1 -0.187585,-0.0455 19.999999,19.999999 0 0 1 -5.18e-4,0 20,20 0 0 1 -0.187069,-0.047 19.999999,19.999999 0 0 1 -5.16e-4,0 20,20 0 0 1 -0.186552,-0.0491 19.999999,19.999999 0 0 1 -5.16e-4,0 20,20 0 0 1 -0.186036,-0.0506 19.999999,19.999999 0 0 1 -5.16e-4,0 20,20 0 0 1 -1.654681,-0.53846 19.999999,19.999999 0 0 1 -5.16e-4,0 20,20 0 0 1 -0.18035,-0.0682 19.999999,19.999999 0 0 1 -5.16e-4,0 20,20 0 0 1 -0.359153,-0.14263 19.999999,19.999999 0 0 1 -5.16e-4,0 20,20 0 0 1 -0.178285,-0.0739 19.999999,19.999999 0 0 1 -5.16e-4,0 20,20 0 0 1 -0.882115,-0.3948 19.999999,19.999999 0 0 1 -5.19e-4,0 20,20 0 0 1 -0.69143,-0.34675 19.999999,19.999999 0 0 1 -5.16e-4,0 20,20 0 0 1 -1.01079,-0.56896 19.999999,19.999999 0 0 1 -5.19e-4,0 20,20 0 0 1 -1.13533,-0.73691 19.999999,19.999999 0 0 1 -0.315227,-0.22427 20,20 0 0 1 -0.155546,-0.11473 19.999999,19.999999 0 0 1 -5.16e-4,0 20,20 0 0 1 -0.307993,-0.23357 19.999999,19.999999 0 0 1 -5.16e-4,0 20,20 0 0 1 -0.151929,-0.11886 19.999999,19.999999 0 0 1 -5.16e-4,0 20,20 0 0 1 -0.150895,-0.12041 19.999999,19.999999 0 0 1 -5.18e-4,0 20,20 0 0 1 -0.298688,-0.24494 19.999999,19.999999 0 0 1 -5.19e-4,-5.2e-4 20,20 0 0 1 -0.147277,-0.12454 19.999999,19.999999 0 0 1 -5.16e-4,0 20,20 0 0 1 -0.291455,-0.25373 19.999999,19.999999 0 0 1 -5.16e-4,0 20,20 0 0 1 -0.286805,-0.25942 19.999999,19.999999 0 0 1 -0.281636,-0.2651 20,20 0 0 1 -0.548288,-0.5457 19.999999,19.999999 0 0 1 0,-5.1e-4 20,20 0 0 1 -0.396875,-0.42272 19.999999,19.999999 0 0 1 -5.16e-4,-5.1e-4 20,20 0 0 1 -0.0124,-0.0139 19.999999,19.999999 0 0 1 -0.116787,-0.12971 20,20 0 0 1 -0.255283,-0.29042 19.999999,19.999999 0 0 1 0,-5.2e-4 20,20 0 0 1 -0.125056,-0.14676 19.999999,19.999999 0 0 1 0,-5.2e-4 20,20 0 0 1 -0.246496,-0.29765 19.999999,19.999999 0 0 1 0,-5.2e-4 20,20 0 0 1 -0.120922,-0.15038 19.999999,19.999999 0 0 1 -5.19e-4,-5.2e-4 20,20 0 0 1 -0.119372,-0.15193 20,20 0 0 1 -0.234611,-0.30747 20,20 0 0 1 -0.115237,-0.15503 19.999999,19.999999 0 0 1 0,-5.2e-4 20,20 0 0 1 -0.113689,-0.15606 19.999999,19.999999 0 0 1 0,-5.1e-4 20,20 0 0 1 -0.112138,-0.1571 19.999999,19.999999 0 0 1 0,-5.2e-4 20,20 0 0 1 -0.432533,-0.64079 19.999999,19.999999 0 0 1 -5.16e-4,-5.1e-4 20,20 0 0 1 -0.10387,-0.16227 19.999999,19.999999 0 0 1 -5.16e-4,-5.1e-4 20,20 0 0 1 -0.303342,-0.49403 19.999999,19.999999 0 0 1 0,-5.2e-4 20,20 0 0 1 -0.09767,-0.16639 19.999999,19.999999 0 0 1 0,-5.2e-4 20,20 0 0 1 -0.191201,-0.3359 19.999999,19.999999 0 0 1 0,-5.1e-4 20,20 0 0 1 -0.09302,-0.16899 19.999999,19.999999 0 0 1 0,-5.1e-4 20,20 0 0 1 -0.09147,-0.17002 19.999999,19.999999 0 0 1 0,-5.2e-4 20,20 0 0 1 -0.349332,-0.68988 19.999999,19.999999 0 0 1 0,-5.1e-4 20,20 0 0 1 -0.0832,-0.17415 19.999999,19.999999 0 0 1 0,-5.2e-4 20,20 0 0 1 -0.08113,-0.17518 20,20 0 0 1 -0.133842,-0.29921 19.999999,19.999999 0 0 1 -0.02377,-0.0543 20,20 0 0 1 -0.07648,-0.17725 19.999999,19.999999 0 0 1 0,-5.1e-4 20,20 0 0 1 -0.287838,-0.71779 19.999999,19.999999 0 0 1 0,-5.2e-4 20,20 0 0 1 -0.259932,-0.72812 19.999999,19.999999 0 0 1 0,-5.1e-4 20,20 0 0 1 -0.176217,-0.55243 19.999999,19.999999 0 0 1 0,-5.1e-4 20,20 0 0 1 -0.209807,-0.74414 19.999999,19.999999 0 0 1 0,-5.2e-4 20,20 0 0 1 -0.09405,-0.37465 19.999999,19.999999 0 0 1 0,-5.2e-4 20,20 0 0 1 -0.238744,-1.13533 19.999999,19.999999 0 0 1 -0.06459,-0.38137 19.999999,19.999999 0 0 1 0,-5.2e-4 20,20 0 0 1 -0.05788,-0.3818904 19.999999,19.999999 0 0 1 0,-5.2e-4 20,20 0 0 1 -0.02584,-0.1912 19.999999,19.999999 0 0 1 0,-5.2e-4 19.999999,19.999999 0 0 1 -0.06666,-0.57619 20,20 0 0 1 -0.0186,-0.19223 19.999999,19.999999 0 0 1 0,-5.2e-4 20,20 0 0 1 -0.01654,-0.19224 19.999999,19.999999 0 0 1 0,-5.2e-4 19.999999,19.999999 0 0 1 -0.03876,-0.57877 20,20 0 0 1 -0.02532,-0.77308 19.999999,19.999999 0 0 1 0,-5.2e-4 20,20 0 0 1 -0.0021,-0.19275 19.999999,19.999999 0 0 1 0,-5.2e-4 20,20 0 0 1 0,-0.0791 z" />
    <path
       id="path17"
       style="fill:none;stroke:#000000;stroke-width:0.239175;stroke-opacity:1"
       d="M 16.151493,6.9756886 V 46.975694 H 56.151492 V 6.9756886 Z" />
    <path
       id="path853"
       style="fill:#ff0000;stroke:#000000;stroke-width:0.239175;stroke-opacity:1"
       d="M 95.042363,7.6698086 A 19.999998,19.999998 0 0 1 75.042548,27.669619 v 0.11989 a 19.999999,19.999999 0 0 1 19.880955,19.880445 h 0.001 a 20,20 0 0 1 19.999287,-19.880965 20,20 0 0 1 0.11886,5.2e-4 v -0.11989 a 19.999999,19.999999 0 0 1 -0.19327,-0.001 19.999998,19.999998 0 0 1 -5.2e-4,0 19.999999,19.999999 0 0 1 -0.96635,-0.0326 19.999999,19.999999 0 0 1 -0.38602,-0.0264 19.999999,19.999999 0 0 1 -0.38499,-0.0336 19.999998,19.999998 0 0 1 -5.1e-4,0 19.999999,19.999999 0 0 1 -0.5762,-0.0641 19.999998,19.999998 0 0 1 -5.1e-4,0 19.999999,19.999999 0 0 1 -0.38293,-0.0522 19.999998,19.999998 0 0 1 -5.1e-4,0 19.999999,19.999999 0 0 1 -0.19069,-0.0289 19.999998,19.999998 0 0 1 -5.2e-4,0 19.999999,19.999999 0 0 1 -0.38137,-0.0636 19.999999,19.999999 0 0 1 -0.38034,-0.0708 19.999999,19.999999 0 0 1 -0.37878,-0.078 19.999998,19.999998 0 0 1 -5.2e-4,0 19.999999,19.999999 0 0 1 -0.37672,-0.0853 19.999998,19.999998 0 0 1 -5.2e-4,0 19.999999,19.999999 0 0 1 -0.18759,-0.0455 19.999998,19.999998 0 0 1 -5.1e-4,0 19.999999,19.999999 0 0 1 -0.18707,-0.047 19.999998,19.999998 0 0 1 -5.2e-4,0 19.999999,19.999999 0 0 1 -0.18655,-0.0491 19.999998,19.999998 0 0 1 -5.2e-4,0 19.999999,19.999999 0 0 1 -0.18603,-0.0506 19.999998,19.999998 0 0 1 -5.2e-4,0 19.999999,19.999999 0 0 1 -1.65468,-0.53847 19.999998,19.999998 0 0 1 -5.2e-4,0 19.999999,19.999999 0 0 1 -0.18035,-0.0682 19.999998,19.999998 0 0 1 -5.1e-4,0 19.999999,19.999999 0 0 1 -0.35915,-0.14263 19.999998,19.999998 0 0 1 -5.2e-4,0 19.999999,19.999999 0 0 1 -0.17828,-0.0739 19.999998,19.999998 0 0 1 -5.2e-4,0 19.999999,19.999999 0 0 1 -0.88212,-0.3948 19.999998,19.999998 0 0 1 -5.2e-4,0 19.999999,19.999999 0 0 1 -0.69143,-0.34675 19.999998,19.999998 0 0 1 -5.1e-4,0 19.999999,19.999999 0 0 1 -1.01079,-0.56896 19.999998,19.999998 0 0 1 -5.2e-4,0 19.999999,19.999999 0 0 1 -1.13533,-0.73691 19.999998,19.999998 0 0 1 -0.31523,-0.22427 19.999999,19.999999 0 0 1 -0.15554,-0.11472 19.999998,19.999998 0 0 1 -5.2e-4,0 19.999999,19.999999 0 0 1 -0.30799,-0.23358 19.999998,19.999998 0 0 1 -5.2e-4,0 19.999999,19.999999 0 0 1 -0.15193,-0.11886 19.999998,19.999998 0 0 1 -5.1e-4,0 19.999999,19.999999 0 0 1 -0.1509,-0.1204 19.999998,19.999998 0 0 1 -5.1e-4,0 19.999999,19.999999 0 0 1 -0.29869,-0.24495 19.999998,19.999998 0 0 1 -5.2e-4,-5.2e-4 19.999999,19.999999 0 0 1 -0.14728,-0.12454 19.999998,19.999998 0 0 1 -5.2e-4,0 19.999999,19.999999 0 0 1 -0.29145,-0.25373 19.999998,19.999998 0 0 1 -5.2e-4,0 19.999999,19.999999 0 0 1 -0.2868,-0.25941 19.999998,19.999998 0 0 1 -0.28164,-0.2651 19.999999,19.999999 0 0 1 -0.54829,-0.54571 19.999998,19.999998 0 0 1 0,-5.1e-4 19.999999,19.999999 0 0 1 -0.39687,-0.42272 19.999998,19.999998 0 0 1 -5.2e-4,-5.1e-4 19.999999,19.999999 0 0 1 -0.0124,-0.0139 19.999998,19.999998 0 0 1 -0.11679,-0.12971 19.999999,19.999999 0 0 1 -0.255277,-0.29042 19.999998,19.999998 0 0 1 0,-5.2e-4 19.999999,19.999999 0 0 1 -0.12506,-0.14676 19.999998,19.999998 0 0 1 0,-5.2e-4 19.999999,19.999999 0 0 1 -0.24649,-0.29766 19.999998,19.999998 0 0 1 0,-5.1e-4 19.999999,19.999999 0 0 1 -0.12093,-0.15038 19.999998,19.999998 0 0 1 -5.1e-4,-5.2e-4 19.999999,19.999999 0 0 1 -0.11938,-0.15193 19.999999,19.999999 0 0 1 -0.23461,-0.30747 19.999999,19.999999 0 0 1 -0.11523,-0.15503 19.999998,19.999998 0 0 1 0,-5.2e-4 19.999999,19.999999 0 0 1 -0.11369,-0.15606 19.999998,19.999998 0 0 1 0,-5.2e-4 19.999999,19.999999 0 0 1 -0.11214,-0.15709 19.999998,19.999998 0 0 1 0,-5.2e-4 19.999999,19.999999 0 0 1 -0.43253,-0.64079 19.999998,19.999998 0 0 1 -5.2e-4,-5.1e-4 19.999999,19.999999 0 0 1 -0.10387,-0.16227 19.999998,19.999998 0 0 1 -5.2e-4,-5.1e-4 19.999999,19.999999 0 0 1 -0.30334,-0.49403 19.999998,19.999998 0 0 1 0,-5.2e-4 19.999999,19.999999 0 0 1 -0.0977,-0.1664 19.999998,19.999998 0 0 1 0,-5.1e-4 19.999999,19.999999 0 0 1 -0.19121,-0.3359 19.999998,19.999998 0 0 1 0,-5.2e-4 19.999999,19.999999 0 0 1 -0.093,-0.16898 19.999998,19.999998 0 0 1 0,-5.1e-4 19.999999,19.999999 0 0 1 -0.0915,-0.17002 19.999998,19.999998 0 0 1 0,-5.2e-4 19.999999,19.999999 0 0 1 -0.34934,-0.68988 19.999998,19.999998 0 0 1 0,-5.2e-4 19.999999,19.999999 0 0 1 -0.0832,-0.17414 19.999998,19.999998 0 0 1 0,-5.2e-4 19.999999,19.999999 0 0 1 -0.0811,-0.17519 19.999999,19.999999 0 0 1 -0.13384,-0.2992 19.999998,19.999998 0 0 1 -0.0238,-0.0543 19.999999,19.999999 0 0 1 -0.0765,-0.17725 19.999998,19.999998 0 0 1 0,-5.2e-4 19.999999,19.999999 0 0 1 -0.28784,-0.71778 19.999998,19.999998 0 0 1 0,-5.2e-4 19.999999,19.999999 0 0 1 -0.25993,-0.72812 19.999998,19.999998 0 0 1 0,-5.2e-4 19.999999,19.999999 0 0 1 -0.17622,-0.55242 19.999998,19.999998 0 0 1 0,-5.1e-4 19.999999,19.999999 0 0 1 -0.2098,-0.74415 19.999998,19.999998 0 0 1 0,-5.1e-4 19.999999,19.999999 0 0 1 -0.094,-0.37466 19.999998,19.999998 0 0 1 0,-5.1e-4 19.999999,19.999999 0 0 1 -0.23875,-1.13533 19.999998,19.999998 0 0 1 -0.0646,-0.38138 19.999998,19.999998 0 0 1 0,-5.1e-4 19.999999,19.999999 0 0 1 -0.0579,-0.38189 19.999998,19.999998 0 0 1 0,-5.2e-4 19.999999,19.999999 0 0 1 -0.0258,-0.1912 19.999998,19.999998 0 0 1 0,-5.2e-4 19.999998,19.999998 0 0 1 -0.0667,-0.5761904 19.999999,19.999999 0 0 1 -0.0186,-0.19224 19.999998,19.999998 0 0 1 0,-5.1e-4 19.999999,19.999999 0 0 1 -0.0165,-0.19224 19.999998,19.999998 0 0 1 0,-5.2e-4 19.999998,19.999998 0 0 1 -0.0388,-0.57877 19.999999,19.999999 0 0 1 -0.0253,-0.77308 19.999998,19.999998 0 0 1 0,-5.2e-4 19.999999,19.999999 0 0 1 -0.002,-0.19275 19.999998,19.999998 0 0 1 0,-5.2e-4 19.999999,19.999999 0 0 1 0,-0.0791 z" />
    <path
       id="path855"
       style="fill:none;stroke:#000000;stroke-width:0.237753;stroke-opacity:1"
       d="M 75.042801,7.9077686 V 47.670024 H 114.80504 V 7.9077686 Z" />
    <path
       id="path869"
       style="fill:#ff0000;fill-opacity:1;stroke:none;stroke-width:0.360987;stroke-opacity:1"
       d="M 128.76538,8.6305186 A 39.999999,39.999999 0 0 0 168.76552,48.630664 39.999999,39.999999 0 0 0 128.76538,8.6305186 Z" />
    <path
       id="path876"
       style="fill:none;stroke:#000000;stroke-width:0.237753;stroke-opacity:1"
       d="M 128.88449,8.7496286 V 48.511894 h 39.76224 V 8.7496286 Z" />
    <path
       id="path878"
       style="fill:#ff0000;fill-opacity:1;stroke:#000000;stroke-width:0.234048;stroke-opacity:1"
       d="M 36.491618,56.457614 A 19.999999,19.999999 0 0 0 16.57087,76.457434 h 19.999818 c 0,-5.54 4.4599,-9.9999 9.9999,-9.9999 5.54,0 10.000431,4.4599 10.000431,9.9999 A 19.999999,19.999999 0 0 0 36.650268,56.457614 Z" />
    <rect
       style="fill:none;fill-opacity:1;stroke:#000000;stroke-width:0.192945;stroke-opacity:1"
       id="rect894"
       width="39.807056"
       height="19.807055"
       x="16.550323"
       y="56.437061" />
    <path
       id="rect898"
       style="fill:#ff0000;fill-opacity:1;stroke:#000000;stroke-width:0.13649;stroke-opacity:1"
       d="m 76.390136,54.258154 v 9.8806 c 0.02743,-5.46189 4.418707,-9.85316 9.880597,-9.8806 z m 9.982917,0 c 5.46188,0.0274 9.85317,4.41871 9.8806,9.8806 v -9.8806 z m -9.982917,9.98292 v 9.88059 h 9.880597 c -5.46189,-0.0274 -9.853169,-4.4187 -9.880597,-9.88059 z m 19.863517,0 c -0.0275,5.46189 -4.41872,9.85316 -9.8806,9.88059 h 9.8806 z" />
    <path
       id="rect944"
       style="fill:#ff0000;fill-opacity:1;stroke:#000000;stroke-width:0.194352;stroke-opacity:1"
       d="m 142.07711,57.025984 c -11.08,0 -19.99981,8.92033 -19.99981,20.00033 11.08,0 20.00033,8.919808 20.00033,19.999808 0,-11.08 8.91981,-19.999808 19.99981,-19.999808 0,-11.08 -8.92033,-20.00033 -20.00033,-20.00033 z" />
    <rect
       style="fill:none;fill-opacity:1;stroke:#000000;stroke-width:0.274855;stroke-opacity:1"
       id="rect955"
       width="40"
       height="40"
       x="122.07748"
       y="57.026165" />
    <path
       id="rect957"
       style="fill:#ff0000;fill-opacity:1;stroke:#000000;stroke-width:0.168314;stroke-opacity:1"
       d="m 176.15359,60.757024 v 30.000228 c 0,-5.54 4.46042,-9.999898 10.00042,-9.999898 5.54,0 9.9999,4.459898 9.9999,9.999898 V 60.757024 c 0,5.54 -4.4599,10.00042 -9.9999,10.00042 -5.54,0 -10.00042,-4.46042 -10.00042,-10.00042 z" />
    <path
       style="fill:none;stroke:#000000;stroke-width:0.39604"
       inkscape:label="Triangle"
       d="M 30.594448,197.80216 H 129.60435 L 93.960789,150.2774 Z"
       id="path41" />
    <path
       id="path46"
       style="fill:#ff0000;stroke-width:0.22241"
       d="m 63.347002,134.42765 a 39.999999,39.999999 0 0 0 -40.935314,39.04205 39.999999,39.999999 0 0 0 7.384118,24.1191 50,50 0 0 1 0.0138,-1.23767 50,50 0 0 1 51.169136,-48.80242 50,50 0 0 1 12.718197,1.95784 39.999999,39.999999 0 0 0 -30.349937,-15.0789 z" />
    <path
       style="fill:none;stroke:#000000;stroke-width:0.39604"
       inkscape:label="Triangle"
       d="M 30.594448,197.80216 H 129.60435 L 93.960789,150.2774 Z"
       id="path75" />
    <path
       id="circle77"
       style="fill:#ff0000;stroke-width:0.630452"
       d="M 421.82031 545.96094 A 113.38583 113.38583 0 0 0 357.60547 565.90039 A 188.97638 188.97638 0 0 1 492.38672 746.9375 A 188.97638 188.97638 0 0 1 492.38477 748.09961 A 113.38583 113.38583 0 0 0 535.20703 659.34766 A 113.38583 113.38583 0 0 0 421.82031 545.96094 z "
       transform="scale(0.26458333)" />
    <path
       style="fill:none;stroke:#000000;stroke-width:0.39604"
       inkscape:label="Triangle"
       d="M 30.594448,197.80216 H 129.60435 L 93.960789,150.2774 Z"
       id="path79" />
    <rect
       style="fill:none;stroke-width:0.240547;stroke:#000000;stroke-opacity:1"
       id="rect89"
       width="6"
       height="6"
       x="176.78958"
       y="12.54476"
       transform="rotate(53.925529)" />
    <ellipse
       style="fill:#000000;fill-opacity:1;stroke:none;stroke-width:0.264583;stroke-opacity:1"
       id="path914"
       cx="93.371773"
       cy="154.29276"
       rx="0.51507658"
       ry="0.42464775" />
    <text
       xml:space="preserve"
       style="font-style:normal;font-weight:normal;font-size:9.62046px;line-height:1.25;font-family:sans-serif;fill:#000000;fill-opacity:1;stroke:none;stroke-width:0.240512"
       x="-58.420528"
       y="172.4146"
       id="text918"
       transform="matrix(0.79165374,-0.59747579,0.56554427,0.83635175,0,0)"><tspan
         sodipodi:role="line"
         id="tspan916"
         x="-58.420528"
         y="172.4146"
         style="stroke-width:0.240512">8 cm</tspan></text>
    <text
       xml:space="preserve"
       style="font-style:normal;font-weight:normal;font-size:8.91777px;line-height:1.25;font-family:sans-serif;fill:#000000;fill-opacity:1;stroke:none;stroke-width:0.222945"
       x="197.93201"
       y="34.412354"
       id="text922"
       transform="matrix(0.67898443,0.72521803,-0.80910762,0.60858622,0,0)"><tspan
         sodipodi:role="line"
         id="tspan920"
         x="197.93201"
         y="34.412354"
         style="stroke-width:0.222945">6 cm</tspan></text>
  </g>
</svg>
